<svg xmlns="http://www.w3.org/2000/svg" version="1.1" xmlns:xlink="http://www.w3.org/1999/xlink" xmlns:svgjs="http://svgjs.com/svgjs" width="1000" height="1000"><rect width="1000" height="1000" rx="250" ry="250" fill="#577071"></rect><g transform="matrix(2.3255813953488373,0,0,2.3255813953488373,0.18669305845747886,32.26459414459936)"><svg xmlns="http://www.w3.org/2000/svg" version="1.1" xmlns:xlink="http://www.w3.org/1999/xlink" xmlns:svgjs="http://svgjs.com/svgjs" width="430" height="403"><svg width="430" height="403" xmlns="http://www.w3.org/2000/svg" xmlns:xlink="http://www.w3.org/1999/xlink" xml:space="preserve" overflow="hidden"><defs><clipPath id="clip0"><rect x="386" y="161" width="430" height="403"></rect></clipPath><clipPath id="clip1"><rect x="397" y="202" width="289" height="278"></rect></clipPath></defs><g clip-path="url(#clip0)" transform="translate(-386 -161)"><path d="M783.203 327.941C770.976 317.819 755.228 313.584 740.182 317.819 734.382 299.855 728.114 282.048 722.707 263.924 723.099 263.376 723.415 262.828 723.806 262.357 729.682 253.571 735.638 244.785 741.514 235.995 746.609 228.309 751.389 220.307 754.365 211.521 759.224 197.085 756.56 179.829 743.865 170.179 730.542 159.902 712.287 166.412 704.216 179.905 693.949 197.009 698.652 219.759 702.176 238.195 704.216 249.02 706.88 259.689 709.936 270.203 699.121 285.971 688.073 301.659 678.434 318.211 668.406 335.551 660.255 354.458 658.923 374.617 657.827 392.189 661.903 410.784 673.106 424.749 691.129 447.107 720.359 450.558 745.981 442.321 746.373 454.714 746.529 467.111 746.609 479.504 746.765 498.099 745.901 517.79 736.342 534.262 732.426 541.009 725.686 548.463 718.007 550.818 710.328 553.17 701.552 553.013 694.813 548.307 688.621 544.068 685.957 536.617 686.661 529.243 687.445 521.789 692.697 513.316 701.08 513.239 706.096 513.239 709.232 518.026 709.7 522.573 710.248 527.596 707.74 532.223 705.548 536.538 700.532 546.343 717.303 551.13 718.163 539.989 718.867 530.891 719.183 519.906 711.816 513.239 706.096 508.14 697.633 508.532 691.677 513.003 681.413 520.69 680.786 537.245 688.545 546.895 698.964 559.916 718.635 559.604 732.502 552.778 740.574 548.855 747.469 540.381 751.621 532.459 756.481 523.201 758.832 512.768 760.084 502.414 761.416 491.037 761.26 479.584 761.184 468.21 761.104 457.541 760.948 446.792 760.632 436.122 765.18 433.691 769.488 430.867 773.484 427.728 781.243 421.61 787.746 415.019 792.838 406.469 798.166 397.448 801.458 387.642 802.713 377.208 804.749 358.849 797.462 339.786 783.203 327.941ZM721.219 177.786C727.958 172.846 735.95 174.022 741.593 179.905 747.705 186.183 749.821 195.361 748.409 203.911 746.685 214.109 741.201 223.13 735.638 231.684 730.542 239.526 725.371 247.293 720.123 255.059 718.399 248.784 716.751 242.509 715.343 236.155 711.503 218.739 703.98 190.574 721.219 177.786ZM719.887 439.809C702.568 439.182 685.801 430.788 676.318 415.959 655.399 383.403 671.226 343.865 689.561 314.292 696.928 302.367 704.684 290.678 712.443 279.065 714.247 284.951 716.047 290.834 718.007 296.716 720.907 305.818 723.883 314.996 726.783 324.097 715.028 332.332 707.272 346.06 708.448 360.812 709.072 368.97 712.52 376.813 717.535 383.247 718.243 384.187 719.575 383.011 719.103 382.071 710.563 366.615 712.991 345.2 726.314 333.196 727.174 332.412 728.038 331.707 728.898 331.08 731.17 338.766 733.366 346.456 735.402 354.222 740.494 374.461 743.394 394.936 744.805 415.727 745.197 421.922 745.509 428.12 745.745 434.239 737.674 438.006 728.978 440.125 719.887 439.809ZM788.53 373.206C787.982 381.364 785.318 389.602 781.711 396.896 777.871 404.742 772.7 412.824 766.588 419.098 764.552 421.218 762.356 423.257 760.084 425.141 759.068 404.27 756.952 383.483 752.641 363.008 749.897 350.063 746.293 337.434 742.377 324.802 752.329 322.526 763.064 324.489 771.527 331.236 784.455 341.354 789.626 357.125 788.53 373.206Z" fill="#FCFFFF" transform="matrix(1 0 0 1.00211 0.855333 -0.198555)"></path><g clip-path="url(#clip1)"><path d="M534.606 208.982C564.966 208.982 594.55 219.634 617.924 238.982 618.521 239.474 619.27 239.748 620.044 239.748L650.064 239.748C651.278 242.124 653.741 243.751 656.585 243.751 660.633 243.751 663.911 240.463 663.911 236.405 663.911 232.346 660.633 229.058 656.585 229.058 653.741 229.058 651.278 230.685 650.064 233.061L621.23 233.061C609.402 223.439 596.187 215.909 581.935 210.675 566.798 205.115 550.873 202.295 534.606 202.295 516.028 202.295 497.998 205.944 481.027 213.148 464.634 220.102 449.913 230.057 437.274 242.735 424.634 255.416 414.711 270.182 407.777 286.623 400.6 303.647 396.958 321.732 396.958 340.369 396.958 359.009 400.6 377.09 407.777 394.118 414.711 410.559 424.634 425.325 437.274 438.006 449.913 450.683 464.634 460.638 481.027 467.593 497.998 474.793 516.028 478.446 534.606 478.446 550.398 478.446 565.885 475.785 580.634 470.538 594.519 465.595 607.47 458.467 619.135 449.351L644.071 449.351C645.229 451.88 647.775 453.639 650.727 453.639 654.771 453.639 658.053 450.343 658.053 446.289 658.053 442.234 654.771 438.942 650.727 438.942 647.997 438.942 645.614 440.441 644.355 442.667L617.98 442.667C617.231 442.667 616.499 442.921 615.913 443.389 592.576 461.949 564.46 471.758 534.606 471.758 462.383 471.758 403.622 412.817 403.622 340.369 403.622 267.92 462.383 208.982 534.606 208.982ZM677.262 270.272C681.386 270.272 684.729 266.918 684.729 262.783 684.729 258.645 681.386 255.295 677.262 255.295 674.452 255.295 672.007 256.852 670.734 259.155L562.715 259.155C562.621 259.055 562.552 258.933 562.521 258.794L559.24 244.677C558.369 240.945 556.239 237.577 553.246 235.191 550.249 232.808 546.496 231.493 542.674 231.493L526.222 231.493C522.4 231.493 518.643 232.808 515.646 235.191 512.653 237.577 510.523 240.945 509.656 244.677L506.371 258.794C506.309 259.065 506.122 259.27 505.855 259.367 503.177 260.324 500.52 261.427 497.96 262.651 497.7 262.773 497.416 262.762 497.183 262.617L484.908 254.962C481.661 252.936 477.783 252.062 473.982 252.502 470.184 252.943 466.604 254.677 463.902 257.386L452.268 269.058C449.566 271.767 447.836 275.357 447.399 279.169 446.962 282.981 447.832 286.873 449.851 290.13L457.482 302.44C457.624 302.675 457.638 302.96 457.513 303.223 456.296 305.79 455.196 308.454 454.239 311.139 454.145 311.409 453.937 311.6 453.67 311.659L439.601 314.951C435.876 315.825 432.518 317.958 430.139 320.962 427.763 323.966 426.455 327.736 426.455 331.572L426.455 349.539C426.455 352.453 427.447 355.315 429.254 357.597 431.058 359.879 433.611 361.499 436.438 362.162L451.141 365.602C453.032 366.043 454.554 367.41 455.21 369.251 456.153 371.905 457.239 374.538 458.439 377.073 459.282 378.846 459.171 380.895 458.144 382.55L450.17 395.415C448.637 397.892 447.974 400.847 448.307 403.736 448.64 406.636 449.955 409.362 452.005 411.419L464.162 423.615C466.216 425.671 468.935 426.989 471.821 427.326 474.703 427.659 477.652 426.993 480.118 425.456L492.945 417.458C494.596 416.428 496.635 416.317 498.404 417.163 500.933 418.367 503.555 419.459 506.201 420.403 508.04 421.062 509.4 422.584 509.84 424.482L513.27 439.234C513.93 442.071 515.546 444.627 517.821 446.438 520.097 448.248 522.948 449.247 525.851 449.247L543.041 449.247C545.945 449.247 548.799 448.248 551.075 446.438 553.346 444.627 554.963 442.071 555.625 439.234L559.056 424.482C559.496 422.584 560.856 421.062 562.694 420.403 565.337 419.459 567.96 418.367 570.488 417.163 572.257 416.317 574.3 416.428 575.951 417.458L588.778 425.456C591.241 426.993 594.189 427.659 597.075 427.326 599.957 426.989 602.677 425.671 604.73 423.615L616.887 411.419C618.941 409.362 620.255 406.636 620.588 403.736 620.918 400.847 620.255 397.892 618.726 395.415L614.22 388.145 666.346 388.145C667.619 390.448 670.068 392.005 672.877 392.005 677.001 392.005 680.345 388.655 680.345 384.517 680.345 380.379 677.001 377.028 672.877 377.028 670.068 377.028 667.619 378.585 666.346 380.889L607.564 380.889C605.566 380.889 603.946 382.512 603.946 384.517 603.946 385.561 604.387 386.504 605.094 387.167L612.583 399.244C613.981 401.509 613.651 404.406 611.775 406.289L599.614 418.481C597.737 420.368 594.852 420.701 592.597 419.293L579.77 411.298C576.021 408.956 571.39 408.7 567.387 410.607 565.077 411.707 562.68 412.702 560.263 413.566 556.097 415.058 553.01 418.519 552.008 422.834L548.577 437.583C547.974 440.177 545.698 441.988 543.041 441.988L525.851 441.988C523.194 441.988 520.919 440.177 520.315 437.583L516.885 422.834C515.882 418.519 512.795 415.058 508.629 413.566 506.215 412.702 503.819 411.707 501.508 410.607 497.506 408.7 492.875 408.956 489.126 411.298L476.299 419.293C474.044 420.701 471.158 420.368 469.278 418.481L457.121 406.289C455.245 404.406 454.912 401.509 456.313 399.244L464.287 386.383C466.621 382.616 466.878 377.975 464.974 373.958 463.878 371.641 462.882 369.238 462.022 366.816 460.538 362.633 457.083 359.543 452.785 358.537L438.082 355.093C435.494 354.489 433.691 352.207 433.691 349.539L433.691 344.545 433.715 340.039C433.698 339.966 433.691 339.897 433.691 339.824L433.691 331.572C433.691 329.366 434.44 327.198 435.807 325.474 437.173 323.747 439.105 322.523 441.242 322.023L455.314 318.725C457.985 318.1 460.132 316.179 461.054 313.577 461.928 311.121 462.934 308.683 464.048 306.335 465.231 303.837 465.074 300.948 463.625 298.61L455.994 286.297C454.835 284.427 454.332 282.19 454.586 279.998 454.835 277.813 455.831 275.745 457.385 274.188L469.018 262.52C470.569 260.962 472.629 259.963 474.811 259.71 476.993 259.457 479.223 259.96 481.089 261.125L493.364 268.777C495.695 270.234 498.574 270.39 501.065 269.204 503.406 268.087 505.834 267.077 508.283 266.203 510.874 265.277 512.795 263.123 513.416 260.442L516.701 246.328C517.2 244.185 518.425 242.246 520.145 240.876 521.866 239.506 524.023 238.753 526.222 238.753L542.674 238.753C544.869 238.753 547.027 239.506 548.747 240.876 550.471 242.246 551.695 244.181 552.195 246.328L555.476 260.442C556.094 263.085 557.97 265.218 560.509 266.165 560.915 266.321 561.359 266.411 561.824 266.411L670.734 266.411C672.007 268.715 674.452 270.272 677.262 270.272ZM482.466 342.547C482.466 371.301 505.785 394.693 534.446 394.693 563.111 394.693 586.426 371.301 586.426 342.547 586.426 340.545 588.05 338.922 590.044 338.922L654.927 338.922C656.2 336.619 658.646 335.062 661.455 335.062 665.579 335.062 668.923 338.412 668.923 342.547 668.923 346.685 665.579 350.039 661.455 350.039 658.646 350.039 656.2 348.478 654.927 346.175L593.554 346.175C593.155 352.914 591.629 359.456 589.01 365.672 586.027 372.744 581.754 379.095 576.319 384.551 570.884 390.007 564.55 394.288 557.498 397.278 550.197 400.378 542.438 401.95 534.446 401.95 526.455 401.95 518.699 400.378 511.397 397.278 504.342 394.288 498.012 390.007 492.573 384.551 487.138 379.095 482.868 372.744 479.885 365.672 476.798 358.346 475.23 350.566 475.23 342.547 475.23 334.531 476.798 326.751 479.885 319.429 482.868 312.353 487.138 306.002 492.573 300.549 498.012 295.093 504.342 290.813 511.397 287.816 518.699 284.722 526.455 283.147 534.446 283.147 542.566 283.147 550.429 284.767 557.828 287.958 564.39 290.792 570.315 294.743 575.466 299.71L632.708 299.71C633.981 297.407 636.429 295.849 639.239 295.849 643.363 295.849 646.707 299.203 646.707 303.338 646.707 307.476 643.363 310.83 639.239 310.83 636.429 310.83 633.981 309.269 632.708 306.966L573.922 306.966C572.722 306.966 571.657 306.38 571.002 305.475 561.206 295.749 548.262 290.407 534.446 290.407 505.785 290.407 482.466 313.799 482.466 342.547" fill="#FCFFFF" transform="matrix(1 0 0 1.00211 0.855333 -0.198555)"></path></g></g></svg></svg></g></svg>